<svg width="10" height="16" viewBox="0 0 10 16" fill="none" xmlns="http://www.w3.org/2000/svg">
<path d="M8.72332 0.693204C8.62916 0.5988 8.51729 0.5239 8.39414 0.472796C8.27098 0.421691 8.13895 0.395386 8.00561 0.395386C7.87227 0.395386 7.74024 0.421691 7.61708 0.472796C7.49393 0.5239 7.38206 0.5988 7.2879 0.693204L0.548689 7.43241C0.473508 7.50744 0.413863 7.59655 0.373167 7.69466C0.332471 7.79277 0.311523 7.89794 0.311523 8.00415C0.311523 8.11036 0.332471 8.21553 0.373167 8.31364C0.413863 8.41174 0.473508 8.50086 0.548689 8.57589L7.2879 15.3151C7.68528 15.7125 8.32595 15.7125 8.72332 15.3151C9.1207 14.9177 9.1207 14.277 8.72332 13.8797L2.85186 8.00009L8.73143 2.12052C9.1207 1.73125 9.1207 1.08247 8.72332 0.693204Z" fill="#1E232C" stroke="#1E232C" stroke-width="0.2"/>
</svg>