<svg width="24" height="25" viewBox="0 0 24 25" fill="none" xmlns="http://www.w3.org/2000/svg">
<path d="M18.4832 17.2661C17.1164 17.5943 15.6895 17.5784 14.3303 17.2198C12.9712 16.8612 11.7221 16.1712 10.6951 15.2114C9.66804 14.2516 8.89506 13.0521 8.44535 11.7203C7.99564 10.3885 7.88325 8.96598 8.11824 7.58008C8.0825 7.61459 8.04477 7.64698 8.00524 7.67708C7.72523 7.89008 7.37524 7.96908 6.67524 8.12708L6.04024 8.27108C3.58024 8.82808 2.35024 9.10608 2.05723 10.0471C1.76523 10.9871 2.60324 11.9681 4.28024 13.9291L4.71424 14.4361C5.19024 14.9931 5.42923 15.2721 5.53623 15.6161C5.64323 15.9611 5.60723 16.3331 5.53523 17.0761L5.46923 17.7531C5.21623 20.3701 5.08924 21.6781 5.85524 22.2591C6.62123 22.8411 7.77323 22.3111 10.0752 21.2501L10.6722 20.9761C11.3262 20.6741 11.6532 20.5241 12.0002 20.5241C12.3472 20.5241 12.6742 20.6741 13.3292 20.9761L13.9242 21.2501C16.2272 22.3101 17.3792 22.8401 18.1442 22.2601C18.9112 21.6781 18.7842 20.3701 18.5312 17.7531L18.4832 17.2661Z" fill="#0050FF"/>
<path d="M9.58939 6.15152L9.58936 6.15158L9.26146 6.7394C9.26143 6.73946 9.26139 6.73952 9.26136 6.73958C9.24543 6.76815 9.22974 6.79635 9.21426 6.82418C8.98886 7.2293 8.80726 7.55568 8.58734 7.81026C8.39775 9.06854 8.51096 10.3547 8.91852 11.5616C9.34182 12.8152 10.0694 13.9442 11.0362 14.8475C12.0029 15.7508 13.1786 16.4003 14.458 16.7377C15.597 17.0381 16.7865 17.0828 17.9417 16.8709C17.888 16.301 17.8604 15.8742 17.9861 15.4689L17.9863 15.4685C18.1249 15.0229 18.4288 14.6683 18.8503 14.1766C18.8686 14.1553 18.8871 14.1337 18.9059 14.1119L9.58939 6.15152ZM9.58939 6.15152C10.2311 5.00087 10.6857 4.18809 11.0932 3.65601C11.5004 3.12429 11.766 3 11.9997 3C12.2334 3 12.499 3.12429 12.9062 3.65601C13.3137 4.18807 13.7683 5.00081 14.4099 6.15138C14.41 6.15143 14.41 6.15148 14.41 6.15152L14.7367 6.73901L14.7369 6.7394C14.7529 6.76803 14.7686 6.79629 14.7841 6.82418C15.0975 7.38742 15.3262 7.79846 15.691 8.07594L15.6917 8.07646C16.0604 8.35594 16.512 8.45767 17.1207 8.59477C17.1511 8.60163 17.182 8.60859 17.2133 8.61566C17.2133 8.61567 17.2134 8.61568 17.2135 8.6157L17.8493 8.75966L17.8495 8.7597C19.0964 9.04152 19.9733 9.24143 20.5803 9.48077C21.1779 9.71642 21.385 9.94099 21.4642 10.1962L21.4643 10.1966C21.5455 10.4575 21.5011 10.7767 21.1463 11.3406C20.788 11.9099 20.189 12.6124 19.3399 13.6049C19.3398 13.6049 19.3398 13.6049 19.3398 13.6049L18.9059 14.1118L9.58939 6.15152Z" fill="#DBE8FF" stroke="#0050FF"/>
</svg>
