<svg width="38" height="38" viewBox="0 0 38 38" fill="none" xmlns="http://www.w3.org/2000/svg">
<g clip-path="url(#clip0_2643_96703)">
<path d="M19 0C13.962 0 9.12594 2.00302 5.56641 5.56492C2.0032 9.12824 0.00098702 13.9608 0 19C0 24.0371 2.00391 28.8732 5.56641 32.4351C9.12594 35.997 13.962 38 19 38C24.038 38 28.8741 35.997 32.4336 32.4351C35.9961 28.8732 38 24.0371 38 19C38 13.9629 35.9961 9.12683 32.4336 5.56492C28.8741 2.00302 24.038 0 19 0Z" fill="url(#paint0_linear_2643_96703)"/>
<path d="M8.59985 18.7991C14.1395 16.3861 17.8327 14.7951 19.6792 14.0265C24.9577 11.8317 26.0531 11.4505 26.7686 11.4376C26.9259 11.4351 27.2763 11.474 27.5049 11.6588C27.6949 11.8146 27.7483 12.0254 27.775 12.1734C27.7988 12.3213 27.8314 12.6582 27.8047 12.9212C27.5197 15.9256 26.2817 23.2163 25.6524 26.5814C25.3881 28.0052 24.8627 28.4825 24.355 28.5292C23.2506 28.6307 22.4134 27.8 21.3447 27.0997C19.6733 26.0033 18.7292 25.3211 17.1053 24.2515C15.2291 23.0153 16.4463 22.3357 17.515 21.2254C17.7941 20.9348 22.6569 16.5128 22.7489 16.1118C22.7608 16.0616 22.7727 15.8746 22.6599 15.776C22.55 15.6771 22.3867 15.711 22.268 15.7377C22.0988 15.7757 19.4299 17.5415 14.2524 21.0348C13.4953 21.5556 12.8095 21.8094 12.192 21.796C11.5152 21.7815 10.2089 21.4125 9.23813 21.0972C8.05063 20.7104 7.1036 20.5058 7.18672 19.8488C7.22829 19.5068 7.70032 19.1568 8.59985 18.7991Z" fill="white"/>
</g>
<defs>
<linearGradient id="paint0_linear_2643_96703" x1="1900" y1="0" x2="1900" y2="3800" gradientUnits="userSpaceOnUse">
<stop stop-color="#2AABEE"/>
<stop offset="1" stop-color="#229ED9"/>
</linearGradient>
<clipPath id="clip0_2643_96703">
<rect width="38" height="38" fill="white"/>
</clipPath>
</defs>
</svg>
