<svg width="18" height="12" viewBox="0 0 30 10" fill="none" xmlns="http://www.w3.org/2000/svg">
<path d="M1.32773 7.82368C2.10408 4.09561 5.34949 1.44669 9.00016 1.44669C12.6497 1.44669 15.8951 4.09561 16.6726 7.82368C16.7034 7.97162 16.7917 8.10126 16.9181 8.18409C17.0444 8.26692 17.1985 8.29615 17.3465 8.26536C17.4944 8.23457 17.6241 8.14627 17.7069 8.01989C17.7897 7.89351 17.8189 7.7394 17.7882 7.59146C16.9037 3.35114 13.2041 0.30835 9.00016 0.30835C4.79626 0.30835 1.09665 3.35114 0.212154 7.59146C0.18136 7.7394 0.210593 7.89351 0.293424 8.01989C0.376254 8.14627 0.505897 8.23457 0.653831 8.26536C0.801766 8.29615 0.955874 8.26692 1.08225 8.18409C1.20864 8.10126 1.29694 7.97162 1.32773 7.82368ZM8.98877 3.72338C10.0454 3.72338 11.0588 4.14314 11.806 4.89032C12.5532 5.6375 12.973 6.6509 12.973 7.70757C12.973 8.76425 12.5532 9.77764 11.806 10.5248C11.0588 11.272 10.0454 11.6918 8.98877 11.6918C7.9321 11.6918 6.9187 11.272 6.17152 10.5248C5.42434 9.77764 5.00457 8.76425 5.00457 7.70757C5.00457 6.6509 5.42434 5.6375 6.17152 4.89032C6.9187 4.14314 7.9321 3.72338 8.98877 3.72338Z" fill="#6A707C"/>
</svg>