<svg width="38" height="38" viewBox="0 0 38 38" fill="none" xmlns="http://www.w3.org/2000/svg">
<g clip-path="url(#clip0_2643_96713)">
<rect width="38" height="38" rx="19" fill="white"/>
<path d="M2.66 2.66C5.03328e-07 5.34533 0 9.63933 0 18.24V19.76C0 28.348 5.03328e-07 32.642 2.66 35.34C5.34533 38 9.63933 38 18.24 38H19.76C28.348 38 32.642 38 35.34 35.34C38 32.6547 38 28.3607 38 19.76V18.24C38 9.652 38 5.358 35.34 2.66C32.6547 5.03328e-07 28.3607 0 19.76 0H18.24C9.652 0 5.358 5.03328e-07 2.66 2.66ZM6.40933 11.5647H10.7667C10.906 18.81 14.098 21.8753 16.6313 22.5087V11.5647H20.7227V17.8093C23.218 17.5433 25.8527 14.6933 26.7393 11.552H30.818C30.4856 13.1781 29.8213 14.7182 28.8667 16.076C27.9121 17.4338 26.6877 18.5802 25.27 19.4433C26.8521 20.2305 28.2494 21.3442 29.3694 22.7111C30.4895 24.0779 31.307 25.6667 31.768 27.3727H27.2713C26.3087 24.3707 23.902 22.04 20.7227 21.7233V27.3727H20.216C11.552 27.3727 6.612 21.4447 6.40933 11.5647Z" fill="#699BF7"/>
</g>
<defs>
<clipPath id="clip0_2643_96713">
<rect width="38" height="38" rx="19" fill="white"/>
</clipPath>
</defs>
</svg>
