<svg width="40" height="40" viewBox="0 0 40 40" fill="none" xmlns="http://www.w3.org/2000/svg">
<g clip-path="url(#clip0_2643_96709)">
<path d="M0.854297 19.7598C0.853359 23.1206 1.73836 26.4022 3.42117 29.2946L0.693359 39.1771L10.8859 36.5253C13.705 38.0481 16.8636 38.846 20.0734 38.8462H20.0818C30.6779 38.8462 39.3034 30.2907 39.3079 19.7749C39.3099 14.6792 37.3118 9.88759 33.6815 6.28263C30.0518 2.67798 25.2245 0.691779 20.081 0.689453C9.48367 0.689453 0.858828 9.24449 0.854453 19.7598" fill="url(#paint0_linear_2643_96709)"/>
<path d="M0.167188 19.7544C0.166094 23.2361 1.08281 26.635 2.82562 29.631L0 39.8678L10.558 37.1209C13.467 38.6947 16.7423 39.5245 20.0752 39.5257H20.0837C31.06 39.5257 39.9953 30.6625 40 19.7702C40.0019 14.4915 37.9319 9.5276 34.1719 5.79349C30.4114 2.05984 25.4114 0.00217054 20.0837 0C9.10562 0 0.171563 8.86202 0.167188 19.7544ZM6.45484 29.115L6.06062 28.4941C4.40344 25.8795 3.52875 22.8581 3.53 19.7557C3.53344 10.7022 10.9591 3.33643 20.09 3.33643C24.5119 3.33829 28.6675 5.04868 31.7931 8.15194C34.9186 11.2555 36.6384 15.3811 36.6373 19.769C36.6333 28.8225 29.2075 36.1891 20.0837 36.1891H20.0772C17.1064 36.1876 14.1928 35.396 11.6519 33.9L11.0472 33.5442L4.78188 35.1741L6.45484 29.115Z" fill="url(#paint1_linear_2643_96709)"/>
<path d="M15.1051 11.4955C14.7323 10.6734 14.3399 10.6568 13.9854 10.6423C13.6951 10.6299 13.3632 10.6309 13.0316 10.6309C12.6998 10.6309 12.1605 10.7548 11.7048 11.2485C11.2485 11.7428 9.96289 12.9372 9.96289 15.3665C9.96289 17.796 11.7462 20.1437 11.9948 20.4735C12.2437 20.8027 15.4374 25.9475 20.4955 27.9267C24.6993 29.5715 25.5548 29.2444 26.4671 29.1619C27.3796 29.0797 29.4115 27.9678 29.826 26.8148C30.2409 25.6619 30.2409 24.6737 30.1165 24.4672C29.9921 24.2614 29.6602 24.1379 29.1626 23.891C28.6648 23.6441 26.2182 22.4495 25.7621 22.2847C25.3059 22.12 24.9741 22.0379 24.6423 22.5323C24.3104 23.0259 23.3574 24.1379 23.067 24.4672C22.7768 24.7972 22.4863 24.8383 21.9888 24.5913C21.4909 24.3436 19.8882 23.8228 17.9868 22.1408C16.5074 20.832 15.5087 19.2157 15.2184 18.7213C14.928 18.2276 15.1873 17.96 15.4368 17.714C15.6604 17.4927 15.9346 17.1374 16.1837 16.8492C16.4318 16.5608 16.5146 16.3551 16.6805 16.0258C16.8466 15.6961 16.7635 15.4078 16.6393 15.1608C16.5146 14.9138 15.5476 12.4718 15.1051 11.4955Z" fill="white"/>
</g>
<defs>
<linearGradient id="paint0_linear_2643_96709" x1="1931.42" y1="3849.45" x2="1931.42" y2="0.689453" gradientUnits="userSpaceOnUse">
<stop stop-color="#1FAF38"/>
<stop offset="1" stop-color="#60D669"/>
</linearGradient>
<linearGradient id="paint1_linear_2643_96709" x1="2000" y1="3986.78" x2="2000" y2="0" gradientUnits="userSpaceOnUse">
<stop stop-color="#F9F9F9"/>
<stop offset="1" stop-color="white"/>
</linearGradient>
<clipPath id="clip0_2643_96709">
<rect width="40" height="40" fill="white"/>
</clipPath>
</defs>
</svg>
