<svg width="32" height="32" viewBox="0 0 32 32" fill="none" xmlns="http://www.w3.org/2000/svg">
<rect width="32" height="32" rx="16" fill="#DBE8FF"/>
<path d="M18.4821 16L13.3185 10.8045C13.2188 10.7077 13.1394 10.5919 13.0847 10.4639C13.03 10.3358 13.0012 10.1981 13 10.0587C12.9988 9.91934 13.0252 9.78114 13.0777 9.65214C13.1301 9.52315 13.2076 9.40596 13.3055 9.30742C13.4035 9.20887 13.5199 9.13093 13.6481 9.07816C13.7763 9.02538 13.9137 8.99883 14.0522 9.00004C14.1907 9.00125 14.3276 9.0302 14.4549 9.08521C14.5821 9.14022 14.6972 9.22018 14.7935 9.32043L20.6946 15.2579C20.8901 15.4548 21 15.7217 21 16C21 16.2783 20.8901 16.5452 20.6946 16.7421L14.7935 22.6796C14.6972 22.7798 14.5821 22.8598 14.4549 22.9148C14.3276 22.9698 14.1907 22.9987 14.0522 23C13.9137 23.0012 13.7763 22.9746 13.6481 22.9218C13.5199 22.8691 13.4035 22.7911 13.3055 22.6926C13.2076 22.594 13.1301 22.4768 13.0777 22.3479C13.0252 22.2189 12.9988 22.0807 13 21.9413C13.0012 21.8019 13.03 21.6642 13.0847 21.5361C13.1394 21.4081 13.2188 21.2923 13.3185 21.1955L18.4821 16Z" fill="#0050FF"/>
<path d="M23 22C23.5523 22 24 21.5523 24 21C24 20.4477 23.5523 20 23 20C22.4477 20 22 20.4477 22 21C22 21.5523 22.4477 22 23 22Z" stroke="#0050FF" stroke-width="2" stroke-linecap="round" stroke-linejoin="round"/>
</svg>
