<svg width="24" height="24" viewBox="0 0 24 24" fill="none" xmlns="http://www.w3.org/2000/svg">
<rect width="24" height="24" rx="4" fill="white" fill-opacity="0.01"/>
<rect x="0.5" y="0.5" width="23" height="23" rx="3.5" stroke="white" stroke-opacity="0.01"/>
<path d="M14.0469 12.5L16.3906 14.8672C16.6953 15.1484 16.6953 15.6172 16.3906 15.8984L15.875 16.4141C15.5938 16.7188 15.125 16.7188 14.8438 16.4141L12.5 14.0703L10.1328 16.4141C9.85156 16.7188 9.38281 16.7188 9.10156 16.4141L8.58594 15.8984C8.28125 15.6172 8.28125 15.1484 8.58594 14.8672L10.9297 12.5L8.58594 10.1562C8.28125 9.875 8.28125 9.40625 8.58594 9.125L9.10156 8.60938C9.38281 8.30469 9.85156 8.30469 10.1328 8.60938L12.5 10.9531L14.8438 8.60938C15.125 8.30469 15.5938 8.30469 15.875 8.60938L16.3906 9.125C16.6953 9.40625 16.6953 9.875 16.3906 10.1562L14.0469 12.5Z" fill="#475467"/>
</svg>
