<svg width="20" height="25" viewBox="0 0 20 25" fill="none" xmlns="http://www.w3.org/2000/svg">
<path d="M17.5 14.0093V10.0246C17.4982 8.24911 16.8697 6.53159 15.7258 5.17615C14.5818 3.82071 12.9963 2.91482 11.25 2.61892V1.25307C11.25 0.920735 11.1183 0.602012 10.8839 0.367016C10.6495 0.132019 10.3315 0 10 0C9.66848 0 9.35054 0.132019 9.11612 0.367016C8.8817 0.602012 8.75 0.920735 8.75 1.25307V2.61892C7.00367 2.91482 5.41816 3.82071 4.27423 5.17615C3.13031 6.53159 2.50179 8.24911 2.5 10.0246V14.0093C1.77056 14.2678 1.13875 14.7462 0.691173 15.3788C0.243598 16.0115 0.00217439 16.7674 0 17.543V20.0491C0 20.3815 0.131696 20.7002 0.366117 20.9352C0.600537 21.1702 0.918479 21.3022 1.25 21.3022H5.175C5.46285 22.364 6.09125 23.3014 6.96325 23.9696C7.83524 24.6379 8.90237 25 10 25C11.0976 25 12.1648 24.6379 13.0368 23.9696C13.9087 23.3014 14.5371 22.364 14.825 21.3022H18.75C19.0815 21.3022 19.3995 21.1702 19.6339 20.9352C19.8683 20.7002 20 20.3815 20 20.0491V17.543C19.9978 16.7674 19.7564 16.0115 19.3088 15.3788C18.8613 14.7462 18.2294 14.2678 17.5 14.0093ZM5 10.0246C5 8.69522 5.52678 7.42033 6.46447 6.48034C7.40215 5.54036 8.67392 5.01228 10 5.01228C11.3261 5.01228 12.5979 5.54036 13.5355 6.48034C14.4732 7.42033 15 8.69522 15 10.0246V13.7838H5V10.0246ZM10 22.5553C9.56372 22.5526 9.13572 22.4356 8.75854 22.2157C8.38136 21.9959 8.06814 21.681 7.85 21.3022H12.15C11.9319 21.681 11.6186 21.9959 11.2415 22.2157C10.8643 22.4356 10.4363 22.5526 10 22.5553ZM17.5 18.796H2.5V17.543C2.5 17.2106 2.6317 16.8919 2.86612 16.6569C3.10054 16.4219 3.41848 16.2899 3.75 16.2899H16.25C16.5815 16.2899 16.8995 16.4219 17.1339 16.6569C17.3683 16.8919 17.5 17.2106 17.5 17.543V18.796Z" fill="white"/>
</svg>
