<svg width="17" height="16" viewBox="0 0 17 16" fill="none" xmlns="http://www.w3.org/2000/svg">
<path fill-rule="evenodd" clip-rule="evenodd" d="M3.16406 3.5C3.16406 2.96957 3.37478 2.46086 3.74985 2.08579C4.12492 1.71071 4.63363 1.5 5.16406 1.5H5.24988C5.78032 1.5 6.28902 1.71071 6.6641 2.08579C7.03917 2.46086 7.24988 2.96957 7.24988 3.5V12.5C7.24988 13.0304 7.03917 13.5391 6.6641 13.9142C6.28902 14.2893 5.78032 14.5 5.24988 14.5H5.16406C4.63363 14.5 4.12492 14.2893 3.74985 13.9142C3.37478 13.5391 3.16406 13.0304 3.16406 12.5V3.5ZM9.24988 3.5C9.24988 2.96957 9.4606 2.46086 9.83567 2.08579C10.2107 1.71071 10.7195 1.5 11.2499 1.5H11.3358C11.8662 1.5 12.3749 1.71071 12.75 2.08579C13.1251 2.46086 13.3358 2.96957 13.3358 3.5V12.5C13.3358 13.0304 13.1251 13.5391 12.75 13.9142C12.3749 14.2893 11.8662 14.5 11.3358 14.5H11.2499C10.7195 14.5 10.2107 14.2893 9.83567 13.9142C9.4606 13.5391 9.24988 13.0304 9.24988 12.5V3.5Z" fill="#476067"/>
</svg>
