<svg width="13" height="13" viewBox="0 0 13 13" fill="none" xmlns="http://www.w3.org/2000/svg">
<path d="M6.5 0.6875C9.71094 0.6875 12.3125 3.28906 12.3125 6.5C12.3125 9.71094 9.71094 12.3125 6.5 12.3125C3.28906 12.3125 0.6875 9.71094 0.6875 6.5C0.6875 3.28906 3.28906 0.6875 6.5 0.6875ZM8.375 4.625C7.95312 4.625 7.625 4.97656 7.625 5.375C7.625 5.79688 7.95312 6.125 8.375 6.125C8.77344 6.125 9.125 5.79688 9.125 5.375C9.125 4.97656 8.77344 4.625 8.375 4.625ZM4.625 4.625C4.20312 4.625 3.875 4.97656 3.875 5.375C3.875 5.79688 4.20312 6.125 4.625 6.125C5.02344 6.125 5.375 5.79688 5.375 5.375C5.375 4.97656 5.02344 4.625 4.625 4.625ZM6.5 10.625C7.90625 10.625 9.64062 9.73438 9.85156 8.44531C9.89844 8.16406 9.64062 7.95312 9.38281 8.02344C8.65625 8.25781 7.625 8.375 6.5 8.375C5.375 8.375 4.32031 8.25781 3.59375 8.02344C3.33594 7.95312 3.07812 8.16406 3.125 8.44531C3.33594 9.73438 5.07031 10.625 6.5 10.625Z" fill="white"/>
</svg>
